<?xml version="1.0" encoding="UTF-8" standalone="no"?>
<!-- Created with Inkscape (http://www.inkscape.org/) -->

<svg
   xmlns:dc="http://purl.org/dc/elements/1.1/"
   xmlns:cc="http://creativecommons.org/ns#"
   xmlns:rdf="http://www.w3.org/1999/02/22-rdf-syntax-ns#"
   xmlns:svg="http://www.w3.org/2000/svg"
   xmlns="http://www.w3.org/2000/svg"
   xmlns:sodipodi="http://sodipodi.sourceforge.net/DTD/sodipodi-0.dtd"
   xmlns:inkscape="http://www.inkscape.org/namespaces/inkscape"
   id="svg2"
   version="1.1"
   inkscape:version="0.47 r22583"
   width="100"
   height="100"
   sodipodi:docname="ssldroid_logo.svg"
   inkscape:export-filename="/home/blint/Desktop/ssldroid_logo3.png"
   inkscape:export-xdpi="32.400002"
   inkscape:export-ydpi="32.400002">
  <metadata
     id="metadata8">
    <rdf:RDF>
      <cc:Work
         rdf:about="">
        <dc:format>image/svg+xml</dc:format>
        <dc:type
           rdf:resource="http://purl.org/dc/dcmitype/StillImage" />
        <dc:title></dc:title>
      </cc:Work>
    </rdf:RDF>
  </metadata>
  <defs
     id="defs6">
    <inkscape:perspective
       sodipodi:type="inkscape:persp3d"
       inkscape:vp_x="0 : 0.5 : 1"
       inkscape:vp_y="0 : 1000 : 0"
       inkscape:vp_z="1 : 0.5 : 1"
       inkscape:persp3d-origin="0.5 : 0.33333333 : 1"
       id="perspective10" />
  </defs>
  <sodipodi:namedview
     pagecolor="#ffffff"
     bordercolor="#666666"
     borderopacity="1"
     objecttolerance="10"
     gridtolerance="10"
     guidetolerance="10"
     inkscape:pageopacity="0"
     inkscape:pageshadow="2"
     inkscape:window-width="1280"
     inkscape:window-height="725"
     id="namedview4"
     showgrid="false"
     inkscape:zoom="2.3137255"
     inkscape:cx="42"
     inkscape:cy="51"
     inkscape:window-x="0"
     inkscape:window-y="24"
     inkscape:window-maximized="1"
     inkscape:current-layer="svg2" />
  <g
     id="g2852"
     transform="matrix(0.91240214,0,0,0.88685086,14.870113,4.241622)">
    <path
       style="fill:#e7f3d0"
       d="M 2,75 2,49 4.5,49 7,49 7,37.196344 C 7,26.536083 7.248015,24.894987 9.5603457,20.254744 16.4002,6.5289447 29.457498,-0.23311704 44.5,2.1603335 51.816958,3.3245531 57.248734,6.3764398 62.883136,12.489044 69.809657,20.003432 70.952616,23.57015 70.978038,37.75 L 71,50 l 2.5,0 2.5,0 0,25.5 0,25.5 -4.75,-2.6e-4 -4.75,-2.6e-4 -5.205272,-9.249742 C 53.262582,77.476663 54.713937,78.223039 46,83.88425 41.875,86.564152 34.183924,91.51152 28.908719,94.8784 L 19.317439,101 10.658719,101 2,101 2,75 z M 74.816243,95.751857 C 75.197722,92.436817 65.481022,75.327765 62.702012,74.421261 60.504735,73.704516 58,75.615225 58,78.008138 c 0,2.007944 0.803216,3.611259 6.910545,13.794282 3.832738,6.390495 4.70497,7.264654 6.984563,7 2.004911,-0.232764 2.677732,-0.935396 2.921135,-3.050563 z M 26.820935,92.451405 c 2.376514,-1.44037 9.07429,-5.691357 14.883946,-9.446638 L 52.267892,76.176983 49.624375,73.533466 C 46.332104,70.241195 41.102033,68 36.711434,68 c -5.201736,0 -13.748597,4.849998 -17.120065,9.714946 -3.300424,4.762432 -4.518738,12.838705 -2.661852,17.645563 1.054337,2.729327 1.207404,2.788262 3.337748,1.285129 1.228004,-0.866458 4.177156,-2.753863 6.55367,-4.194233 z M 21.078007,86.593993 C 19.668143,84.895211 20.417999,83 22.5,83 c 2.165232,0 2.884257,2.044315 1.282422,3.64615 -1.272303,1.272302 -1.610626,1.265778 -2.704415,-0.05216 z m 16.257826,-11.16121 c -0.83346,-2.171962 1.282435,-4.214515 2.79695,-2.7 C 41.412816,74.012816 40.619834,77 39,77 38.415477,77 37.666601,76.294752 37.335833,75.432783 z M 55,38.886155 C 55,30.340993 54.661242,28.16957 52.815909,24.886244 50.500175,20.765952 44.345602,17 39.927674,17 33.269543,17 26.582016,21.130003 23.410724,27.20034 21.953112,29.990431 21.51772,40.3386 22.625,45.875 L 23.25,49 39.125,49 55,49 55,38.886155 z M 31.27458,9.6540875 C 33.598561,8.8311815 34.698047,8.1223684 33.717881,8.0789474 31.334161,7.9733492 25.031866,10.661831 22.678671,12.788138 21.636682,13.729662 19.834846,15.85 18.67459,17.5 c -1.659846,2.360466 -0.992064,2.003423 3.132506,-1.67486 2.883135,-2.571173 7.143502,-5.348147 9.467484,-6.1710525 z M 40.75,7.3106745 c -0.9625,-0.2515276 -2.5375,-0.2515276 -3.5,0 -0.9625,0.2515275 -0.175,0.4573228 1.75,0.4573228 1.925,0 2.7125,-0.2057953 1.75,-0.4573228 z"
       id="path2864" />
    <path
       style="fill:#d8ebb1"
       d="M 2,75 2,49 4.5,49 7,49 7,37.196344 C 7,26.536083 7.248015,24.894987 9.5603457,20.254744 16.4002,6.5289447 29.457498,-0.23311704 44.5,2.1603335 51.816958,3.3245531 57.248734,6.3764398 62.883136,12.489044 69.809657,20.003432 70.952616,23.57015 70.978038,37.75 L 71,50 l 2.5,0 2.5,0 0,22.243891 0,22.243892 -5.757257,-9.993892 C 65.052209,75.483762 64.202168,74.5 61.607296,74.5 c -5.385463,0 -5.115316,3.129492 1.22022,14.135543 4.434474,7.703538 6.21312,9.940026 8.119408,10.209427 1.499562,0.211921 2.944732,-0.343897 3.747048,-1.44113 C 75.887603,95.771453 76,95.84934 76,98.30887 76,100.82645 75.713566,101 71.558335,101 l -4.441666,0 -5.477268,-9.25 C 58.626903,86.6625 55.56158,81.702094 54.827572,80.726875 c -1.232984,-1.63817 -2.659758,-0.934137 -18.745791,9.25 L 18.67055,101 10.335275,101 2,101 2,75 z M 36.25,86.739412 C 44.9125,81.286458 52,76.492778 52,76.086789 c 0,-0.405988 -1.0125,-1.663964 -2.25,-2.795502 -7.992883,-7.308482 -19.342366,-6.939596 -27.434087,0.891676 -2.131292,2.062691 -3.748613,2.864972 -4.891444,2.426427 -1.447156,-0.555326 -1.510995,-0.418573 -0.41889,0.897332 0.997969,1.202479 1.029859,2.120085 0.141443,4.069945 -2.450987,5.379331 -0.796704,17.50191 2.153151,15.778278 C 19.960078,96.969356 27.5875,92.192366 36.25,86.739412 z M 21,85 c 0,-1.111111 0.666667,-2 1.5,-2 0.833333,0 1.5,0.888889 1.5,2 0,1.111111 -0.666667,2 -1.5,2 C 21.666667,87 21,86.111111 21,85 z M 37.6875,76.354167 C 36.271985,74.938651 37.072968,73 39.073324,73 c 1.397962,0 1.968005,0.54305 1.75,1.667134 -0.356943,1.840479 -2.064002,2.758855 -3.135824,1.687033 z M 55,38.886155 C 55,30.340993 54.661242,28.16957 52.815909,24.886244 50.500175,20.765952 44.345602,17 39.927674,17 33.269543,17 26.582016,21.130003 23.410724,27.20034 21.953112,29.990431 21.51772,40.3386 22.625,45.875 L 23.25,49 39.125,49 55,49 55,38.886155 z M 31.27458,9.6540875 C 33.598561,8.8311815 34.698047,8.1223684 33.717881,8.0789474 31.334161,7.9733492 25.031866,10.661831 22.678671,12.788138 21.636682,13.729662 19.834846,15.85 18.67459,17.5 c -1.659846,2.360466 -0.992064,2.003423 3.132506,-1.67486 2.883135,-2.571173 7.143502,-5.348147 9.467484,-6.1710525 z M 40.75,7.3106745 c -0.9625,-0.2515276 -2.5375,-0.2515276 -3.5,0 -0.9625,0.2515275 -0.175,0.4573228 1.75,0.4573228 1.925,0 2.7125,-0.2057953 1.75,-0.4573228 z"
       id="path2862" />
    <path
       style="fill:#c8e490"
       d="M 2,75 2,49 4.5,49 7,49 7,37.196344 C 7,26.536083 7.248015,24.894987 9.5603457,20.254744 16.4002,6.5289447 29.457498,-0.23311704 44.5,2.1603335 51.816958,3.3245531 57.248734,6.3764398 62.883136,12.489044 69.809657,20.003432 70.952616,23.57015 70.978038,37.75 L 71,50 l 2.5,0 2.5,0 -0.03121,21.75 -0.03121,21.75 -2.400409,-4 C 64.673097,74.729062 64.110601,74 61.578396,74 c -2.875408,0 -4.902281,2.943712 -3.909243,5.677558 1.482133,4.080331 10.649888,18.42282 12.361409,19.338798 2.395777,1.282184 2.548448,1.261774 4.398009,-0.587785 C 75.857143,97 76,97.045455 76,98.928571 76,100.71183 75.384211,101 71.573634,101 l -4.426367,0 -6.323633,-10.982926 c -3.477999,-6.040609 -6.633267,-10.990609 -7.011707,-11 C 53.433487,79.007683 45.293281,83.95 35.722581,90 L 18.321306,101 10.160653,101 2,101 2,75 z M 34.625345,87.983408 C 43.319656,82.474283 50.869757,77.530243 51.403348,76.996652 53.838663,74.561337 44.086909,68 38.032119,68 c -2.80723,0 -3.044587,-0.278133 -3.200222,-3.75 l -0.168103,-3.75 -0.388758,3.691214 c -0.338552,3.214516 -0.850298,3.843535 -3.962605,4.870689 -1.965616,0.648712 -5.344919,2.779533 -7.509562,4.735158 L 18.867155,77.352742 15.683578,75.607291 12.5,73.86184 l 2.722633,2.334823 c 2.72147,2.333825 2.721993,2.33695 1.224247,7.313583 -1.349652,4.484552 -1.304799,7.412431 0.195165,12.739754 0.271001,0.9625 0.871345,1.75 1.334096,1.75 0.46275,0 7.954892,-4.507466 16.649204,-10.016592 z M 21,85 c 0,-1.111111 0.666667,-2 1.5,-2 0.833333,0 1.5,0.888889 1.5,2 0,1.111111 -0.666667,2 -1.5,2 C 21.666667,87 21,86.111111 21,85 z M 37.25,74.75 c 0.229167,-0.6875 1.016667,-1.25 1.75,-1.25 0.733333,0 1.520833,0.5625 1.75,1.25 C 40.997863,75.49359 40.288889,76 39,76 37.711111,76 37.002137,75.49359 37.25,74.75 z M 55,38.886155 C 55,30.340993 54.661242,28.16957 52.815909,24.886244 50.500175,20.765952 44.345602,17 39.927674,17 33.269543,17 26.582016,21.130003 23.410724,27.20034 21.953112,29.990431 21.51772,40.3386 22.625,45.875 L 23.25,49 39.125,49 55,49 55,38.886155 z M 31.27458,9.6540875 C 33.598561,8.8311815 34.698047,8.1223684 33.717881,8.0789474 31.334161,7.9733492 25.031866,10.661831 22.678671,12.788138 21.636682,13.729662 19.834846,15.85 18.67459,17.5 c -1.659846,2.360466 -0.992064,2.003423 3.132506,-1.67486 2.883135,-2.571173 7.143502,-5.348147 9.467484,-6.1710525 z M 40.75,7.3106745 c -0.9625,-0.2515276 -2.5375,-0.2515276 -3.5,0 -0.9625,0.2515275 -0.175,0.4573228 1.75,0.4573228 1.925,0 2.7125,-0.2057953 1.75,-0.4573228 z"
       id="path2860" />
    <path
       style="fill:#bee07c"
       d="M 2,75 2,49 4.5,49 7,49 7,37.196344 C 7,26.536083 7.248015,24.894987 9.5603457,20.254744 16.4002,6.5289447 29.457498,-0.23311704 44.5,2.1603335 51.816958,3.3245531 57.248734,6.3764398 62.883136,12.489044 69.809657,20.003432 70.952616,23.57015 70.978038,37.75 L 71,50 73.5,50 76,50 75.97695,71.75 75.9539,93.5 71.161327,85.324629 c -2.635914,-4.496454 -5.380643,-8.883954 -6.099398,-9.75 -2.01762,-2.431084 -5.92256,-1.974631 -7.206051,0.842324 -0.960929,2.10901 -0.438351,3.575327 4.101572,11.508705 7.153224,12.500042 8.955851,14.018172 12.471114,10.502913 C 75.857143,97 76,97.045455 76,98.928571 76,100.70097 75.3825,101 71.722469,101 l -4.277531,0 -6.472469,-10.977862 c -3.559858,-6.037824 -6.861825,-10.987824 -7.337704,-11 C 53.158886,79.009962 44.958238,83.95 35.411102,90 L 18.052673,101 10.026337,101 2,101 2,75 z M 35.913875,87.321252 C 51.176482,77.665604 52.683812,76.462574 51.646844,74.764456 49.892184,71.891062 44.040146,68.640079 39.541387,68.039511 35.849897,67.54671 35.446463,67.196975 34.881641,64 L 34.263282,60.5 34.114575,64 c -0.137856,3.244587 -0.551578,3.674426 -5.669351,5.890211 -3.036354,1.314616 -6.423189,3.537612 -7.5263,4.93999 -1.976025,2.512109 -2.049338,2.523976 -4.962291,0.803253 C 14.330485,74.672865 13,74.290137 13,74.782949 c 0,0.492811 1.169131,1.428713 2.598069,2.07978 1.917912,0.87386 2.40666,1.635813 1.866922,2.910515 -2.168942,5.122406 -2.751149,10.32828 -1.588914,14.207474 C 16.53839,96.191323 17.519883,98 18.057173,98 18.594462,98 26.629978,93.194563 35.913875,87.321252 z M 21.176676,85.447179 C 21.628947,83.275066 23.403696,83.142157 23.809629,85.25 24.02043,86.344603 23.529958,87 22.5,87 21.539273,87 20.988034,86.353163 21.176676,85.447179 z M 37.542705,75.069098 C 36.803164,73.872496 38.68433,72.686871 40.016312,73.510081 41.13467,74.201265 40.400479,76 39,76 38.514919,76 37.859136,75.581094 37.542705,75.069098 z M 55,38.886155 C 55,30.340993 54.661242,28.16957 52.815909,24.886244 50.500175,20.765952 44.345602,17 39.927674,17 33.269543,17 26.582016,21.130003 23.410724,27.20034 21.953112,29.990431 21.51772,40.3386 22.625,45.875 L 23.25,49 39.125,49 55,49 55,38.886155 z M 31.27458,9.6540875 C 33.598561,8.8311815 34.698047,8.1223684 33.717881,8.0789474 31.334161,7.9733492 25.031866,10.661831 22.678671,12.788138 21.636682,13.729662 19.834846,15.85 18.67459,17.5 c -1.659846,2.360466 -0.992064,2.003423 3.132506,-1.67486 2.883135,-2.571173 7.143502,-5.348147 9.467484,-6.1710525 z M 40.75,7.3106745 c -0.9625,-0.2515276 -2.5375,-0.2515276 -3.5,0 -0.9625,0.2515275 -0.175,0.4573228 1.75,0.4573228 1.925,0 2.7125,-0.2057953 1.75,-0.4573228 z"
       id="path2858" />
    <path
       style="fill:#b6db6b"
       d="M 2,75 2,49 4.5,49 7,49 7,37.196344 C 7,26.536083 7.248015,24.894987 9.5603457,20.254744 16.4002,6.5289447 29.457498,-0.23311704 44.5,2.1603335 51.816958,3.3245531 57.248734,6.3764398 62.883136,12.489044 69.809657,20.003432 70.952616,23.57015 70.978038,37.75 L 71,50 l 2.5,0 2.5,0 -0.01806,21.75 -0.01806,21.75 -4.615286,-8 C 68.810181,81.1 66.048565,76.7125 65.211664,75.75 62.518073,72.652167 57,74.087021 57,77.885263 c 0,0.816895 2.524869,5.905838 5.61082,11.308762 5.797188,10.149794 8.647983,12.495925 11.902166,9.795198 C 75.725087,97.983268 76,98.055062 76,99.377555 c 0,1.242555 -0.995128,1.621755 -4.25,1.619505 l -4.25,-0.003 -6.813353,-11.566926 c -4.835432,-8.20904 -7.157838,-11.302079 -8,-10.654604 -1.241628,0.954593 -4.881491,3.304456 -23.379797,15.093794 L 18.1137,101 10.05685,101 2,101 2,75 z m 37.737465,9.956111 C 52.252261,77.051308 52.901628,76.483069 51.632226,74.547422 49.82957,71.798644 43.393678,68.242307 38.825033,67.470439 35.426472,66.896256 35.078486,66.531497 34.723789,63.17151 L 34.336206,59.5 34.168103,63.591712 c -0.157144,3.824954 -0.416892,4.166252 -3.984185,5.235039 -2.098845,0.628829 -5.586345,2.676403 -7.75,4.550164 -3.765442,3.260936 -4.055671,3.344072 -6.776848,1.941226 -1.563612,-0.806088 -3.067931,-1.240614 -3.342931,-0.965614 -0.275,0.275 0.891819,1.219738 2.592931,2.099417 3.617668,1.870769 3.482629,1.371128 1.59293,5.893813 -1.889057,4.52115 -1.905351,8.748338 -0.05083,13.186833 l 1.44917,3.468352 4.30083,-2.841782 C 24.564627,94.596181 32.456859,89.554808 39.737465,84.956111 z M 21.5,86 C 21.100846,85.354154 21.224265,84.375735 21.774265,83.825735 22.440931,83.159069 23.016176,83.217157 23.5,84 c 0.399154,0.645846 0.275735,1.624265 -0.274265,2.174265 C 22.559069,86.840931 21.983824,86.782843 21.5,86 z M 37.542705,75.069098 C 36.803164,73.872496 38.68433,72.686871 40.016312,73.510081 41.13467,74.201265 40.400479,76 39,76 38.514919,76 37.859136,75.581094 37.542705,75.069098 z M 55,38.886155 C 55,30.340993 54.661242,28.16957 52.815909,24.886244 50.500175,20.765952 44.345602,17 39.927674,17 33.269543,17 26.582016,21.130003 23.410724,27.20034 21.953112,29.990431 21.51772,40.3386 22.625,45.875 L 23.25,49 39.125,49 55,49 55,38.886155 z M 31.27458,9.6540875 C 33.598561,8.8311815 34.698047,8.1223684 33.717881,8.0789474 31.334161,7.9733492 25.031866,10.661831 22.678671,12.788138 21.636682,13.729662 19.834846,15.85 18.67459,17.5 c -1.659846,2.360466 -0.992064,2.003423 3.132506,-1.67486 2.883135,-2.571173 7.143502,-5.348147 9.467484,-6.1710525 z M 40.75,7.3106745 c -0.9625,-0.2515276 -2.5375,-0.2515276 -3.5,0 -0.9625,0.2515275 -0.175,0.4573228 1.75,0.4573228 1.925,0 2.7125,-0.2057953 1.75,-0.4573228 z"
       id="path2856" />
    <path
       style="fill:#a5d447"
       d="M 2,75 2,49 4.5,49 7,49 7,37.196344 C 7,26.536083 7.248015,24.894987 9.5603457,20.254744 16.4002,6.5289447 29.457498,-0.23311704 44.5,2.1603335 51.816958,3.3245531 57.248734,6.3764398 62.883136,12.489044 69.809657,20.003432 70.952616,23.57015 70.978038,37.75 L 71,50 l 2.5,0 2.5,0 0,21.222506 c 0,23.678953 0.550655,22.867561 -6.849682,10.09303 -4.134485,-7.136989 -6.356528,-8.941108 -9.518072,-7.72791 -3.110533,1.193624 -3.149081,5.391277 -0.09955,10.84014 C 66.080482,96.127251 69.014602,100 71.330729,100 72.578828,100 74.14,99.46 74.8,98.8 c 0.933333,-0.933333 1.2,-0.809445 1.2,0.557498 0,1.449212 -0.745498,1.703562 -4.25,1.450002 L 67.5,100.5 61.254166,90.012497 c -3.435209,-5.768127 -6.397967,-10.943127 -6.583908,-11.5 -0.18594,-0.556873 -2.100314,0.171397 -4.254165,1.618377 C 48.262242,81.577855 41.325,86.011053 35,89.982426 28.675,93.953798 22.280722,98.057404 20.790493,99.101551 18.674585,100.58409 16.319471,101 10.040493,101 L 2,101 2,75 z M 35,88.19596 C 53.293139,76.607441 52.987733,76.845597 51.977098,74.957207 50.342653,71.903219 46.177085,69.230209 40.974226,67.896757 36.522456,66.755802 36,66.332858 36,63.869967 36,62.356404 35.55,60.839919 35,60.5 34.396069,60.12675 34,61.489616 34,63.940983 34,66.929004 33.593704,68 32.460162,68 c -2.414666,0 -8.71649,3.544303 -11.384938,6.403174 -2.253065,2.413845 -2.586947,2.491552 -4.714817,1.097318 C 13.790745,73.816785 12,73.561417 12,74.87868 c 0,0.483273 1.35,1.437868 3,2.12132 3.407294,1.411347 3.456912,1.576741 1.5,5 -1.892062,3.309817 -1.876374,10.371494 0.03124,14.060406 l 1.531238,2.961087 5.718762,-3.67067 C 26.926557,93.331955 31.975,90.112266 35,88.19596 z M 21,85 c 0,-0.55 0.675,-1 1.5,-1 0.825,0 1.5,0.45 1.5,1 0,0.55 -0.675,1 -1.5,1 C 21.675,86 21,85.55 21,85 z M 38,74.5 c 0,-0.916667 0.48375,-1.505417 1.075,-1.308333 0.59125,0.197083 1.075,0.785833 1.075,1.308333 0,0.5225 -0.48375,1.11125 -1.075,1.308333 C 38.48375,76.005417 38,75.416667 38,74.5 z M 55,38.886155 C 55,30.340993 54.661242,28.16957 52.815909,24.886244 50.500175,20.765952 44.345602,17 39.927674,17 33.269543,17 26.582016,21.130003 23.410724,27.20034 21.953112,29.990431 21.51772,40.3386 22.625,45.875 L 23.25,49 39.125,49 55,49 55,38.886155 z M 31.27458,9.6540875 C 33.598561,8.8311815 34.698047,8.1223684 33.717881,8.0789474 31.334161,7.9733492 25.031866,10.661831 22.678671,12.788138 21.636682,13.729662 19.834846,15.85 18.67459,17.5 c -1.659846,2.360466 -0.992064,2.003423 3.132506,-1.67486 2.883135,-2.571173 7.143502,-5.348147 9.467484,-6.1710525 z M 40.75,7.3106745 c -0.9625,-0.2515276 -2.5375,-0.2515276 -3.5,0 -0.9625,0.2515275 -0.175,0.4573228 1.75,0.4573228 1.925,0 2.7125,-0.2057953 1.75,-0.4573228 z"
       id="path2854" />
  </g>
</svg>
